<svg preserveAspectRatio="none" overflow="visible" style="display: block;" width="15" height="15" viewBox="0 0 15 15" fill="none" xmlns="http://www.w3.org/2000/svg">
<g id="Icon">
<path id="Vector" d="M7.53125 1.25C4.125 1.25 1.375 4 1.375 7.40625C1.375 8.59375 1.71875 9.71875 2.3125 10.6562L1.25 13.75L4.4375 12.75C5.37613 13.2988 6.44394 13.5879 7.53125 13.5875C10.9375 13.5875 13.6875 10.8375 13.6875 7.43125C13.6875 4.025 10.9375 1.25 7.53125 1.25ZM7.53125 12.4375C6.53125 12.4375 5.59375 12.1562 4.78125 11.6562L4.59375 11.5437L2.71875 12.1375L3.325 10.3062L3.2 10.1188C2.60629 9.18667 2.3381 8.08415 2.43735 6.98351C2.5366 5.88286 2.99769 4.84611 3.74857 4.03527C4.49944 3.22443 5.49779 2.6852 6.58758 2.50185C7.67737 2.3185 8.79721 2.50136 9.77207 3.02184C10.7469 3.54233 11.5219 4.37113 11.9758 5.3787C12.4298 6.38627 12.5371 7.51585 12.2811 8.59089C12.0251 9.66594 11.4201 10.6259 10.5608 11.3207C9.70141 12.0155 8.63607 12.406 7.53125 12.4312V12.4375Z" fill="white"/>
</g>
</svg>
