<svg preserveAspectRatio="none" overflow="visible" style="display: block;" width="15" height="15" viewBox="0 0 15 15" fill="none" xmlns="http://www.w3.org/2000/svg">
<g id="Icon">
<path id="Vector" d="M6.43709 2.37472L1.62459 10.6872C1.51569 10.8758 1.45793 11.0895 1.45704 11.3073C1.45615 11.525 1.51215 11.7392 1.6195 11.9286C1.72686 12.1181 1.88183 12.2762 2.06908 12.3873C2.25634 12.4985 2.46937 12.5588 2.68709 12.5622H12.3121C12.5298 12.5588 12.7428 12.4985 12.9301 12.3873C13.1174 12.2762 13.2723 12.1181 13.3797 11.9286C13.487 11.7392 13.543 11.525 13.5421 11.3073C13.5412 11.0895 13.4835 10.8758 13.3746 10.6872L8.56209 2.37472C8.44999 2.19384 8.29356 2.04457 8.10762 1.94105C7.92169 1.83753 7.7124 1.7832 7.49959 1.7832C7.28678 1.7832 7.0775 1.83753 6.89156 1.94105C6.70563 2.04457 6.5492 2.19384 6.43709 2.37472Z" stroke="#8A5A00" stroke-width="1.25" stroke-linecap="round" stroke-linejoin="round"/>
<path id="Vector_2" d="M7.5 5.625V8.4375" stroke="#8A5A00" stroke-width="1.25" stroke-linecap="round" stroke-linejoin="round"/>
<path id="Vector_3" d="M7.5 10.75H7.50625" stroke="#8A5A00" stroke-width="1.25" stroke-linecap="round" stroke-linejoin="round"/>
</g>
</svg>
